<?xml version="1.0" standalone="no"?>
<!DOCTYPE svg PUBLIC "-//W3C//DTD SVG 20010904//EN"
 "http://www.w3.org/TR/2001/REC-SVG-20010904/DTD/svg10.dtd">
<svg version="1.0" xmlns="http://www.w3.org/2000/svg"
 width="1024.000000pt" height="1024.000000pt" viewBox="0 0 1024.000000 1024.000000"
 preserveAspectRatio="xMidYMid meet">

<g transform="translate(0.000000,1024.000000) scale(0.100000,-0.100000)"
fill="#000000" stroke="none">
<path d="M6300 8379 c-87 -10 -177 -39 -319 -104 -263 -119 -421 -151 -578
-119 -20 4 -23 0 -23 -29 0 -102 59 -234 148 -328 l62 -66 0 -79 c0 -44 7
-110 16 -149 15 -70 15 -71 -18 -198 -37 -147 -36 -155 35 -176 l46 -14 47
-121 c65 -167 88 -202 158 -238 52 -27 161 -20 266 15 l75 26 108 -108 109
-108 -30 -59 c-17 -33 -37 -85 -46 -115 -14 -48 -42 -364 -87 -991 -10 -137
-15 -169 -28 -172 -65 -19 -834 -137 -855 -132 -14 3 -61 31 -103 61 -168 117
-145 110 -345 113 -157 3 -182 1 -220 -16 -60 -26 -108 -69 -127 -113 -10 -24
-34 -49 -66 -71 -70 -47 -106 -102 -108 -166 -2 -44 2 -56 25 -79 27 -27 30
-27 185 -33 141 -5 162 -8 193 -28 l35 -22 -323 0 -323 0 3 -66 3 -65 933 1
932 1 0 -66 0 -65 -2094 0 -2093 0 -38 -26 c-108 -73 -134 -187 -67 -291 35
-54 85 -91 134 -102 18 -4 338 -6 710 -6 373 0 678 -4 678 -9 0 -8 -389 -982
-560 -1401 -45 -110 -128 -315 -184 -455 -57 -140 -125 -306 -151 -368 l-47
-112 -313 0 c-309 0 -312 0 -346 -23 -44 -29 -63 -84 -49 -137 11 -41 51 -87
88 -101 13 -5 1440 -9 3323 -9 3632 0 3348 -5 3389 62 31 51 35 90 12 134 -39
75 -46 77 -375 75 -275 -2 -289 -1 -283 16 32 83 -6 181 -83 213 -27 11 -30
17 -33 63 -4 61 -8 64 -157 107 -53 16 -197 57 -321 93 -124 36 -256 76 -295
89 l-70 23 -3 263 -2 262 75 0 75 0 0 70 0 70 -360 0 -361 0 3 -67 3 -68 78
-3 77 -3 0 -264 c0 -146 -2 -265 -5 -265 -2 0 -77 -22 -167 -49 -90 -27 -228
-68 -308 -91 -403 -117 -390 -111 -390 -173 0 -40 -2 -44 -42 -62 -23 -11 -51
-32 -61 -46 -24 -33 -35 -93 -26 -136 8 -39 -3 -43 -118 -43 -82 0 -83 0 -89
28 -3 15 -10 43 -15 62 -28 115 -196 874 -204 925 -6 38 28 323 88 730 l22
150 78 3 c42 2 77 1 77 -1 0 -3 -10 -26 -22 -53 -25 -57 -30 -167 -10 -226 8
-21 33 -64 57 -97 36 -49 57 -66 121 -98 l78 -38 994 -3 c643 -2 1014 1 1050
8 95 17 159 54 243 139 60 61 86 97 117 162 50 106 50 105 122 584 32 220 80
531 105 690 25 160 64 405 86 545 22 140 58 368 79 505 22 138 51 324 65 415
14 91 37 237 51 326 29 182 26 210 -27 283 -47 66 -120 96 -234 95 -115 0
-173 -24 -245 -100 -47 -50 -98 -139 -87 -151 3 -3 25 8 49 25 130 89 269 114
379 69 l34 -14 -55 -31 c-35 -20 -62 -29 -76 -26 -31 8 -137 -21 -188 -51 -66
-39 -163 -145 -196 -217 -21 -45 -37 -107 -55 -218 -14 -85 -44 -261 -65 -390
-22 -129 -76 -455 -120 -725 -44 -269 -82 -500 -85 -512 -5 -20 -12 -23 -60
-23 -30 0 -55 4 -55 9 0 28 239 1494 263 1613 l13 67 -41 113 c-79 215 -153
338 -274 458 -79 78 -190 153 -275 186 -57 22 -88 60 -147 177 l-39 77 34 68
c134 267 154 558 53 775 -111 237 -351 368 -617 336z m253 -162 c62 -28 120
-83 156 -146 l23 -42 -46 34 c-60 46 -107 62 -187 61 -77 -1 -138 -26 -263
-106 -250 -161 -478 -182 -620 -57 -26 23 -45 43 -43 45 2 3 33 -3 68 -12 87
-22 232 -15 313 16 32 12 121 64 197 116 77 51 161 100 187 109 63 20 148 13
215 -18z m-759 -562 c53 -16 166 -19 234 -6 42 8 43 8 56 -23 13 -31 78 -96
96 -96 6 0 10 -33 10 -74 0 -41 3 -82 6 -91 10 -25 62 -48 93 -40 47 12 61 33
61 92 0 61 9 84 53 131 72 76 177 12 177 -108 -1 -100 -60 -185 -152 -218
l-48 -17 0 -54 c0 -51 -3 -57 -43 -96 -30 -28 -74 -54 -143 -82 -234 -97 -270
-97 -310 -5 -100 233 -106 252 -115 385 -5 70 -13 155 -19 190 -9 57 -13 127
-7 127 1 0 24 -7 51 -15z m1223 -845 c33 -17 91 -56 129 -88 109 -91 167 -191
189 -327 6 -37 4 -34 -30 32 -46 89 -123 169 -201 207 -46 23 -77 30 -140 34
-158 9 -287 -54 -388 -189 -26 -34 -46 -58 -46 -55 0 3 11 35 25 71 33 88 100
189 168 253 104 98 187 115 294 62z m270 -897 c9 -60 7 -82 -18 -195 -30 -138
-133 -539 -174 -683 -55 -190 -117 -280 -231 -338 -91 -46 -97 -41 -31 25 106
107 103 97 404 1160 16 54 31 98 34 98 3 0 10 -30 16 -67z m-692 -188 c88 -8
327 -44 333 -50 2 -2 1 -25 -2 -50 -6 -37 -11 -45 -24 -41 -26 7 -256 34 -357
41 l-90 7 3 41 c5 64 9 69 39 63 16 -3 60 -8 98 -11z m54 -286 c85 -11 128
-32 152 -74 17 -29 16 -36 -15 -197 -24 -117 -41 -180 -59 -211 -57 -96 -149
-148 -296 -168 -46 -6 -318 -9 -686 -7 l-610 3 -80 49 c-44 27 -104 64 -134
83 l-55 33 -153 0 -154 0 16 31 c9 16 21 32 28 34 7 2 89 8 182 12 l170 8 3
28 3 27 -120 0 c-67 0 -121 4 -121 9 0 5 14 21 31 35 30 25 35 26 165 26 l135
0 97 -69 c162 -115 192 -131 236 -131 36 0 390 50 867 121 l145 22 28 171 c16
94 30 174 32 178 5 7 71 3 193 -13z m1067 -1080 c24 -11 60 -39 81 -62 l37
-42 -1034 -5 -1035 -5 -45 -23 c-63 -33 -89 -59 -116 -117 -56 -118 -11 -263
104 -336 l46 -29 643 0 c524 0 650 3 677 14 46 19 104 73 127 118 19 38 20 38
80 38 58 0 60 -1 54 -22 -26 -86 -112 -191 -186 -229 -86 -43 -81 -43 -819
-49 l-715 -5 -63 -34 c-75 -41 -125 -95 -151 -165 l-19 -51 -12 30 c-17 42 -6
119 24 170 32 54 84 99 151 132 l54 26 -41 46 c-22 25 -53 71 -67 101 -22 47
-26 68 -26 145 1 82 4 96 34 157 38 77 94 134 173 175 l53 28 595 5 c1376 12
1349 12 1396 -11z m-3476 -551 c34 -145 82 -339 106 -433 24 -93 63 -250 86
-348 36 -153 40 -180 28 -188 -34 -21 -45 -4 -94 144 -26 82 -52 145 -56 140
-9 -9 -40 -236 -90 -643 -17 -140 -33 -270 -36 -288 -6 -40 2 -36 -384 -197
-352 -147 -377 -162 -401 -232 l-11 -33 -304 0 c-167 0 -304 2 -304 4 0 2 34
75 76 162 42 88 104 220 139 294 35 74 96 203 135 285 84 174 167 349 422 895
102 217 218 464 258 548 l73 152 147 0 146 0 64 -262z m492 -1784 c45 -23 49
-27 33 -36 -10 -6 -142 -69 -294 -140 -225 -106 -282 -128 -313 -126 l-38 3
30 46 c27 41 44 53 163 110 72 35 179 87 237 116 58 29 111 52 118 53 7 0 36
-12 64 -26z m2805 -79 c-52 -49 -69 -108 -53 -182 l8 -33 -862 0 c-817 0 -862
1 -855 18 28 64 16 130 -34 182 l-38 40 931 0 931 0 -28 -25z"/>
<path d="M3389 8295 c-57 -31 -54 58 -57 -1548 -1 -960 1 -1492 8 -1516 18
-69 53 -88 389 -221 166 -66 196 -72 235 -47 54 36 51 -41 51 1462 0 1575 8
1424 -77 1503 -53 49 -352 300 -414 347 -50 38 -91 44 -135 20z m317 -2881
l184 -95 0 -40 c0 -21 -3 -39 -7 -39 -5 1 -89 42 -188 93 l-180 92 -3 43 c-2
23 0 42 4 42 3 0 89 -43 190 -96z"/>
<path d="M3195 6958 c-11 -6 -37 -24 -57 -40 l-38 -30 0 -252 c0 -238 1 -255
20 -279 17 -21 20 -40 20 -121 0 -85 -3 -101 -24 -135 -14 -21 -38 -67 -54
-102 -16 -35 -112 -235 -212 -444 -154 -321 -419 -880 -437 -922 -4 -10 99
-13 498 -13 277 0 602 3 722 7 214 6 217 6 211 27 -9 30 -51 84 -77 98 -16 10
-137 14 -479 18 -251 3 -459 8 -463 12 -4 3 84 186 194 406 l201 399 -2 691
c-3 687 -3 691 -23 680z"/>
</g>
</svg>
