<?xml version="1.0" encoding="UTF-8" standalone="no"?>
<svg xmlns="http://www.w3.org/2000/svg" version="1.1" width="542" height="600" viewbox="0 0 542 600">
<title>undefined</title><path d="M271,0 L0,0 L0,300 L0,600 L271,600 L542,600 L542,300 L542,0 L271,0 " fill="rgb(255, 255, 255)" stroke="none" fill-rule="evenodd"></path><path d="M302,0 C281.65,0,261.4,0.9,257,2 C252.6,3.1,249.9,4.225,251,4.5 C252.1,4.775,255.7,4.55,259,4 C262.3,3.45,269.275,2.55,274.5,2 C279.725,1.45,293.9,1,306,1 C318.1,1,330.025,1.225,332.5,1.5 C334.975,1.775,343.3,3.125,351,4.5 C358.7,5.875,371.525,9.025,379.5,11.5 C387.475,13.975,394.9,16.45,396,17 C397.1,17.55,395.75,16.875,393,15.5 C390.25,14.125,384.4,11.875,380,10.5 C375.6,9.125,367.05,6.875,361,5.5 C354.95,4.125,349.55,2.775,349,2.5 C348.45,2.225,347.1,2.225,346,2.5 C344.9,2.775,342.875,2.325,341.5,1.5 C340.125,0.675,322.35,0,302,0 M244,5 C241.8,5,237.525,5.9,234.5,7 C231.475,8.1,228.325,8.775,227.5,8.5 C226.675,8.225,223.3,8.9,220,10 C216.7,11.1,208.825,13.575,202.5,15.5 C196.175,17.425,184.7,21.475,177,24.5 C169.3,27.525,158.725,32.025,153.5,34.5 C148.275,36.975,139.275,41.925,133.5,45.5 C127.725,49.075,118.275,55.825,112.5,60.5 C106.725,65.175,98.175,72.825,93.5,77.5 C88.825,82.175,81.625,89.825,77.5,94.5 C73.375,99.175,67.975,105.925,65.5,109.5 C63.025,113.075,58.3,120.05,55,125 C51.7,129.95,47.875,136.025,46.5,138.5 C45.125,140.975,43.325,144.125,42.5,145.5 C41.675,146.875,39.425,150.925,37.5,154.5 C35.575,158.075,32.65,163.7,31,167 C29.35,170.3,26.875,175.475,25.5,178.5 C24.125,181.525,21.2,188.5,19,194 C16.8,199.5,13.65,208.275,12,213.5 C10.35,218.725,8.325,225.7,7.5,229 C6.675,232.3,4.65,240.175,3,246.5 C0.706,255.295,0,267.76,0,299.5 C0,322.325,0.675,342.575,1.5,344.5 C2.325,346.425,3.675,351.375,4.5,355.5 C5.325,359.625,7.125,367.275,8.5,372.5 C9.875,377.725,11.675,383.8,12.5,386 C13.325,388.2,15.125,393.375,16.5,397.5 C17.875,401.625,20.125,407.925,21.5,411.5 C22.875,415.075,24.9,420.25,26,423 C27.1,425.75,31.15,433.4,35,440 C38.85,446.6,44.25,455.6,47,460 C49.75,464.4,54.025,470.925,56.5,474.5 C58.975,478.075,62.575,483.025,64.5,485.5 C66.425,487.975,73.175,495.85,79.5,503 C85.825,510.15,93.475,518.25,96.5,521 C99.525,523.75,105.6,529.15,110,533 C114.4,536.85,122.05,542.925,127,546.5 C131.95,550.075,140.725,555.925,146.5,559.5 C152.275,563.075,160.375,567.8,164.5,570 C168.625,572.2,176.725,576.025,182.5,578.5 C188.275,580.975,196.375,584.125,200.5,585.5 C204.625,586.875,212.05,589.125,217,590.5 C221.95,591.875,227.8,593.675,230,594.5 C232.2,595.325,235.8,596.225,238,596.5 C240.2,596.775,245.15,597.45,249,598 C252.85,598.55,258.925,599,262.5,599 C266.075,599,266.975,598.775,264.5,598.5 C262.025,598.225,253.475,597.1,245.5,596 C237.525,594.9,223.575,591.75,214.5,589 C205.425,586.25,191.7,581.3,184,578 C176.3,574.7,164.15,568.625,157,564.5 C149.85,560.375,138.375,552.95,131.5,548 C124.625,543.05,114.95,535.4,110,531 C105.05,526.6,97.4,519.4,93,515 C88.6,510.6,82.075,503.625,78.5,499.5 C74.925,495.375,68.175,486.825,63.5,480.5 C58.825,474.175,52.075,464.275,48.5,458.5 C44.925,452.725,39.75,443.725,37,438.5 C34.25,433.275,30.2,424.95,28,420 C25.8,415.05,22.65,407.4,21,403 C19.35,398.6,17.325,392.975,16.5,390.5 C15.675,388.025,13.875,382.175,12.5,377.5 C11.125,372.825,9.1,364.95,8,360 C6.9,355.05,5.325,346.95,4.5,342 C3.675,337.05,2.55,327.375,2,320.5 C1.45,313.625,1,299.9,1,290 C1,280.1,1.45,268.4,2,264 C2.55,259.6,4.125,250.6,5.5,244 C6.875,237.4,9.8,226.15,12,219 C14.2,211.85,18.925,199.025,22.5,190.5 C26.075,181.975,30.575,172.075,32.5,168.5 C34.967,163.919,36.295,162.59,37,164 C37.55,165.1,37.55,164.65,37,163 C36.45,161.35,36.9,158.425,38,156.5 C39.1,154.575,42.475,148.725,45.5,143.5 C48.525,138.275,55.05,128.15,60,121 C64.95,113.85,72.825,103.5,77.5,98 C82.175,92.5,89.15,84.85,93,81 C96.85,77.15,104.05,70.625,109,66.5 C113.95,62.375,119.575,57.875,121.5,56.5 C123.425,55.125,127.7,52.2,131,50 C134.3,47.8,139.475,44.65,142.5,43 C145.525,41.35,148.9,39.55,150,39 C151.1,38.45,154.25,36.875,157,35.5 C159.75,34.125,165.825,31.425,170.5,29.5 C175.175,27.575,186.875,23.3,196.5,20 C206.125,16.7,217.6,13.1,222,12 C226.4,10.9,233.6,9.1,238,8 C242.4,6.9,246.45,5.775,247,5.5 C247.55,5.225,246.2,5,244,5 M400,18 C399.45,18,406.425,21.375,415.5,25.5 C424.575,29.625,435.6,35.025,440,37.5 C444.4,39.975,451.825,44.475,456.5,47.5 C461.175,50.525,463.2,51.425,461,49.5 C458.8,47.575,454.975,44.875,452.5,43.5 C450.025,42.125,445.75,39.425,443,37.5 C440.25,35.575,436.65,33.55,435,33 C433.35,32.45,429.3,30.65,426,29 C422.7,27.35,417.975,25.1,415.5,24 C413.025,22.9,408.75,21.1,406,20 C403.25,18.9,400.55,18,400,18 M233.5,19.5 C227.725,19.225,220.975,19.225,218.5,19.5 C216.025,19.775,209.05,20.675,203,21.5 C196.95,22.325,188.4,24.125,184,25.5 C179.6,26.875,175.325,28.45,174.5,29 C173.675,29.55,172.55,30.225,172,30.5 C171.45,30.775,171.9,31.225,173,31.5 C174.1,31.775,175.225,31.775,175.5,31.5 C175.775,31.225,176.225,31.225,176.5,31.5 C176.775,31.775,177.45,31.775,178,31.5 C178.55,31.225,179.45,31.225,180,31.5 C180.55,31.775,180.1,31.55,179,31 C177.9,30.45,176.775,30.225,176.5,30.5 C176.225,30.775,176.675,30.55,177.5,30 C178.325,29.45,180.125,29.45,181.5,30 C182.875,30.55,183.775,31.225,183.5,31.5 C183.225,31.775,183.675,31.55,184.5,31 C185.325,30.45,185.55,29.775,185,29.5 C184.45,29.225,185.8,29.225,188,29.5 L192,30 L188.5,29 C186.575,28.45,184.1,28.225,183,28.5 C181.9,28.775,182.575,28.55,184.5,28 C186.425,27.45,188.675,26.775,189.5,26.5 C190.325,26.225,191.225,26.45,191.5,27 C191.775,27.55,192.225,27.55,192.5,27 C192.775,26.45,193.675,25.775,194.5,25.5 C195.325,25.225,196.225,25.225,196.5,25.5 C196.775,25.775,197.45,25.55,198,25 C198.55,24.45,199.225,24.225,199.5,24.5 C199.775,24.775,202.7,24.55,206,24 C209.3,23.45,212.45,22.775,213,22.5 C213.55,22.225,214.9,22.45,216,23 C217.1,23.55,217.55,23.55,217,23 C216.45,22.45,217.575,22.225,219.5,22.5 C221.425,22.775,223.9,22.55,225,22 C226.1,21.45,229.25,21.45,232,22 C234.75,22.55,238.35,23.225,240,23.5 C241.65,23.775,242.325,23.55,241.5,23 C240.675,22.45,242.475,22.45,245.5,23 C248.525,23.55,250.325,23.55,249.5,23 C248.675,22.45,253.625,22.9,260.5,24 C267.375,25.1,274.575,26.45,276.5,27 C278.425,27.55,280.225,27.775,280.5,27.5 C280.775,27.225,280.55,27.675,280,28.5 C279.406,29.391,280.016,29.797,281.5,29.5 C282.875,29.225,283.325,29.45,282.5,30 C281.675,30.55,280.55,31.225,280,31.5 C279.45,31.775,280.35,31.775,282,31.5 C283.65,31.225,285.9,30.775,287,30.5 C288.1,30.225,288.775,30.45,288.5,31 C288.225,31.55,288.675,31.775,289.5,31.5 C290.325,31.225,292.8,31.675,295,32.5 C297.2,33.325,300.35,34.45,302,35 C303.65,35.55,305.45,36.225,306,36.5 C306.55,36.775,307.225,36.775,307.5,36.5 C307.775,36.225,307.775,36.45,307.5,37 C307.225,37.55,307.675,38.225,308.5,38.5 C309.325,38.775,309.55,39.225,309,39.5 C308.45,39.775,308.9,39.775,310,39.5 C311.1,39.225,314.025,40.125,316.5,41.5 C318.975,42.875,320.775,44.225,320.5,44.5 C320.225,44.775,320.9,44.775,322,44.5 C323.333,44.167,323.333,44.5,322,45.5 C320.464,46.652,320.813,46.884,323.5,46.5 C325.425,46.225,327.675,46.45,328.5,47 C329.325,47.55,331.125,48.675,332.5,49.5 C333.875,50.325,335.45,51.675,336,52.5 C336.55,53.325,336.55,54.225,336,54.5 C335.45,54.775,336.125,55.225,337.5,55.5 C338.875,55.775,340.45,55.775,341,55.5 C341.55,55.225,342.45,55.45,343,56 C343.55,56.55,344.225,56.55,344.5,56 C344.775,55.45,346.125,55.9,347.5,57 C348.875,58.1,350.225,59.45,350.5,60 C350.775,60.55,349.65,60.325,348,59.5 C346.35,58.675,345.225,58.45,345.5,59 C345.775,59.55,347.575,60.45,349.5,61 C351.425,61.55,353.45,61.775,354,61.5 C354.55,61.225,355.675,61.9,356.5,63 C357.325,64.1,358.675,65.45,359.5,66 C360.325,66.55,361.225,67.225,361.5,67.5 C361.775,67.775,362.45,67.775,363,67.5 C363.55,67.225,363.55,67.45,363,68 C362.45,68.55,362.45,69.225,363,69.5 C363.55,69.775,364.45,69.775,365,69.5 C365.55,69.225,366.9,69.675,368,70.5 C369.1,71.325,369.55,72.225,369,72.5 C368.45,72.775,369.125,73.225,370.5,73.5 C371.875,73.775,373.675,74.675,374.5,75.5 C375.446,76.446,374.892,76.631,373,76 C371.35,75.45,369.775,74.775,369.5,74.5 C369.225,74.225,369.225,74.45,369.5,75 C369.775,75.55,371.575,76.45,373.5,77 C375.425,77.55,377.225,77.775,377.5,77.5 C377.775,77.225,377.775,77.45,377.5,78 C377.225,78.55,377.45,79.225,378,79.5 C378.55,79.775,379.225,79.775,379.5,79.5 C379.775,79.225,381.35,80.35,383,82 C384.65,83.65,385.775,85.225,385.5,85.5 C385.225,85.775,385.225,86.225,385.5,86.5 C385.775,86.775,385.55,87.225,385,87.5 C384.45,87.775,384.675,87.55,385.5,87 C386.325,86.45,386.775,85.775,386.5,85.5 C386.225,85.225,386.675,85.45,387.5,86 C388.325,86.55,389.45,87.45,390,88 C390.55,88.55,391.225,88.775,391.5,88.5 C391.775,88.225,393.125,89.35,394.5,91 C396.5,93.4,396.5,93.7,394.5,92.5 C392.5,91.3,392.5,91.4,394.5,93 C395.875,94.1,397.45,94.775,398,94.5 C398.55,94.225,399.225,94.45,399.5,95 C399.775,95.55,399.775,96.225,399.5,96.5 C399.225,96.775,399.45,97.225,400,97.5 C400.55,97.775,401.225,97.775,401.5,97.5 C401.775,97.225,404.25,99.025,407,101.5 C409.75,103.975,412.225,106.45,412.5,107 C412.775,107.55,411.2,106.65,409,105 C406.8,103.35,404.1,101.325,403,100.5 C401.411,99.308,401.308,99.411,402.5,101 C403.325,102.1,404.9,103.45,406,104 C407.1,104.55,409.8,106.575,412,108.5 C414.2,110.425,415.325,111.1,414.5,110 C413.5,108.667,414,108.667,416,110 C417.65,111.1,419.9,113.125,421,114.5 C422.1,115.875,423.225,117.45,423.5,118 C423.775,118.55,423.325,119.675,422.5,120.5 C421.675,121.325,421.225,121.325,421.5,120.5 C421.775,119.675,421.1,120.125,420,121.5 C418.9,122.875,418.225,124.45,418.5,125 C418.775,125.55,418.55,125.325,418,124.5 C417.45,123.675,417.225,122.55,417.5,122 C417.775,121.45,417.775,120.775,417.5,120.5 C417.225,120.225,417.225,119.775,417.5,119.5 C417.775,119.225,417.325,119.45,416.5,120 C415.675,120.55,415.45,121.225,416,121.5 C416.55,121.775,416.55,122.9,416,124 C415.45,125.1,415.45,125.775,416,125.5 C416.55,125.225,416.325,126.125,415.5,127.5 C414.675,128.875,413.325,130.9,412.5,132 C411.675,133.1,411.225,134.225,411.5,134.5 C411.775,134.775,412.675,134.1,413.5,133 C414.325,131.9,413.65,133.025,412,135.5 C410.35,137.975,407.875,141.575,406.5,143.5 C405.125,145.425,403.325,147.9,402.5,149 C401.5,150.333,401.167,150.333,401.5,149 C401.775,147.9,402.45,146.325,403,145.5 C403.55,144.675,403.1,145.125,402,146.5 C400.9,147.875,400.225,149.9,400.5,151 C400.775,152.1,400.55,153.225,400,153.5 C399.45,153.775,398.775,153.55,398.5,153 C398.225,152.45,397.55,152.675,397,153.5 C396.45,154.325,396.675,154.775,397.5,154.5 C398.325,154.225,398.775,154.45,398.5,155 C398.225,155.55,397.55,156.675,397,157.5 C396.45,158.325,395.55,158.775,395,158.5 C394.45,158.225,393.775,158.45,393.5,159 C393.225,159.55,392.775,159.55,392.5,159 C392.225,158.45,391.775,158.675,391.5,159.5 C391.225,160.325,391.45,160.775,392,160.5 C392.55,160.225,392.55,161.125,392,162.5 C391.45,163.875,390.775,165.225,390.5,165.5 C390.225,165.775,390.225,166.225,390.5,166.5 C390.775,166.775,390.325,167.225,389.5,167.5 C388.675,167.775,388.225,168.45,388.5,169 C388.775,169.55,388.1,170.675,387,171.5 C385.9,172.325,385.225,172.55,385.5,172 C385.775,171.45,385.55,170.325,385,169.5 C384.406,168.609,383.797,169.016,383.5,170.5 C383.225,171.875,383.675,173.45,384.5,174 C385.325,174.55,385.55,175.225,385,175.5 C384.45,175.775,384.225,175.55,384.5,175 C384.775,174.45,383.875,175.125,382.5,176.5 C381.108,177.892,379.557,178.335,379,177.5 C378.45,176.675,378.675,177.125,379.5,178.5 C380.599,180.331,381.401,180.465,382.5,179 C383.325,177.9,383.1,178.125,382,179.5 C380.9,180.875,379.775,181.775,379.5,181.5 C379.225,181.225,379.225,181.675,379.5,182.5 C379.775,183.325,379.55,183.775,379,183.5 C378.45,183.225,377.775,183.225,377.5,183.5 C377.225,183.775,377.225,182.875,377.5,181.5 C377.9,179.5,377.8,179.5,377,181.5 C376.45,182.875,376.225,184.675,376.5,185.5 C376.775,186.325,376.55,186.55,376,186 C375.45,185.45,375.225,185.9,375.5,187 C375.775,188.1,375.55,189.225,375,189.5 C374.45,189.775,373.1,191.125,372,192.5 C370.9,193.875,370.225,195.45,370.5,196 C370.775,196.55,370.325,196.55,369.5,196 C368.675,195.45,368.225,195.45,368.5,196 C368.775,196.55,368.55,197.675,368,198.5 C367.45,199.325,366.775,200.9,366.5,202 C366.225,203.1,364.875,205.125,363.5,206.5 C362.125,207.875,361.225,208.55,361.5,208 C361.775,207.45,362.225,206.55,362.5,206 C362.775,205.45,362.325,205.9,361.5,207 C360.675,208.1,360.225,209.45,360.5,210 C360.775,210.55,360.55,211.225,360,211.5 C359.45,211.775,358.55,212.675,358,213.5 C357.45,214.325,356.1,216.125,355,217.5 C353.9,218.875,352.55,220.9,352,222 C351.273,223.455,350.182,222.636,348,219 C346.35,216.25,342.75,210.625,340,206.5 C337.25,202.375,331.175,194.05,326.5,188 C321.825,181.95,316.875,175.875,315.5,174.5 C314.125,173.125,311.875,170.875,310.5,169.5 C309.125,168.125,305.525,164.75,302.5,162 C299.475,159.25,296.1,156.325,295,155.5 C293.9,154.675,292.1,153.55,291,153 C289.9,152.45,286.525,153.8,283.5,156 C280.475,158.2,277.325,161.125,276.5,162.5 C275.675,163.875,274.775,164.775,274.5,164.5 C274.225,164.225,274.225,163.775,274.5,163.5 C274.775,163.225,273.65,164.125,272,165.5 C270.35,166.875,267.65,169.35,266,171 C264.35,172.65,259.625,178.725,255.5,184.5 C251.375,190.275,247.1,196.575,246,198.5 C244.9,200.425,242.425,204.7,240.5,208 C238.575,211.3,236.775,213.775,236.5,213.5 C236.225,213.225,236.225,213.45,236.5,214 C236.775,214.55,236.55,216.35,236,218 C235.45,219.65,235.225,222.35,235.5,224 C235.775,225.65,235.55,228.125,235,229.5 C234.45,230.875,233.55,232.675,233,233.5 C232.45,234.325,231.775,235.225,231.5,235.5 C231.225,235.775,231.225,234.425,231.5,232.5 C231.775,230.575,230.875,232.825,229.5,237.5 C228.125,242.175,226.55,248.025,226,250.5 C225.45,252.975,225.45,253.425,226,251.5 C226.55,249.575,227.675,245.975,228.5,243.5 C229.599,240.203,229.733,241.006,229,246.5 C228.45,250.625,227.325,256.25,226.5,259 L225,264 L224.5,260.5 C224.211,258.479,223.789,259.535,223.5,263 C223.225,266.3,223.45,268.1,224,267 C224.705,265.59,225.148,266.033,225.5,268.5 L226,272 L227,267 C227.55,264.25,228.675,258.625,229.5,254.5 C230.325,250.375,231.45,244.975,232,242.5 C232.55,240.025,233.45,237.1,234,236 C234.55,234.9,235.45,233.325,236,232.5 C236.55,231.675,237.45,226.725,238,221.5 C238.55,216.275,240.35,209.75,242,207 C243.65,204.25,245.9,200.65,247,199 C248.1,197.35,250.35,193.75,252,191 C253.65,188.25,257.475,183.075,260.5,179.5 C263.525,175.925,266.675,172.55,267.5,172 C268.325,171.45,270.125,170.1,271.5,169 C272.875,167.9,274.9,166.775,276,166.5 C277.1,166.225,279.125,164.425,280.5,162.5 C281.875,160.575,283.45,158.325,284,157.5 C284.55,156.675,286.125,155.55,287.5,155 C289.057,154.377,292.263,155.697,296,158.5 C299.3,160.975,306.05,167.275,311,172.5 C315.95,177.725,322.25,184.925,325,188.5 C327.75,192.075,332.7,199.05,336,204 C339.3,208.95,343.8,215.7,346,219 C348.2,222.3,350.675,225.45,351.5,226 C352.325,226.55,357.275,227.225,362.5,227.5 C367.725,227.775,374.025,228.225,376.5,228.5 C378.975,228.775,383.025,229.225,385.5,229.5 C387.975,229.775,390.9,230.225,392,230.5 C393.1,230.775,394.675,230.775,395.5,230.5 C396.325,230.225,399.025,230.225,401.5,230.5 C403.975,230.775,409.825,231,414.5,231 C419.175,231,425.475,231.45,428.5,232 C431.525,232.55,434.675,233.225,435.5,233.5 C436.325,233.775,437.45,233.775,438,233.5 C438.55,233.225,439.45,233.225,440,233.5 C440.55,233.775,441.9,233.775,443,233.5 C444.1,233.225,446.8,233.45,449,234 C451.2,234.55,454.575,234.775,456.5,234.5 C458.425,234.225,459.775,233.325,459.5,232.5 C459.225,231.675,460.125,228.975,461.5,226.5 C462.875,224.025,465.125,221.1,466.5,220 C467.875,218.9,469.675,216.875,470.5,215.5 C471.325,214.125,472.45,211.875,473,210.5 C473.55,209.125,474.45,206.875,475,205.5 C475.55,204.125,477.125,200.75,478.5,198 C479.875,195.25,483.25,189.4,486,185 C488.75,180.6,493.25,173.175,496,168.5 C498.75,163.825,502.125,158.65,503.5,157 C504.875,155.35,506.675,153.1,507.5,152 C508.325,150.9,510.575,147.525,512.5,144.5 C514.425,141.475,516.9,137.2,518,135 C519.1,132.8,521.575,128.3,523.5,125 C526.262,120.266,527.949,118.895,531.5,118.5 C533.975,118.225,536.45,117.775,537,117.5 C537.55,117.225,513.925,117,484.5,117 C455.075,117,430.55,116.325,430,115.5 C429.45,114.675,429.225,114.675,429.5,115.5 C429.775,116.325,429.55,117.225,429,117.5 C428.45,117.775,450.05,118,477,118 L526,118 L524,121 C522.9,122.65,521.325,124.9,520.5,126 C519.675,127.1,518.1,129.575,517,131.5 C515.9,133.425,514.55,136.35,514,138 C513.45,139.65,511.65,142.575,510,144.5 C508.35,146.425,505.65,150.025,504,152.5 C502.35,154.975,500.55,157.675,500,158.5 C499.45,159.325,498.1,161.575,497,163.5 C495.9,165.425,493.875,168.8,492.5,171 C491.125,173.2,489.1,176.35,488,178 C486.9,179.65,485.55,181.9,485,183 C484.45,184.1,482.875,186.575,481.5,188.5 C480.125,190.425,478.325,193.575,477.5,195.5 C476.675,197.425,475.55,200.125,475,201.5 C474.45,202.875,473.55,205.125,473,206.5 C472.45,207.875,471.325,209.9,470.5,211 C469.675,212.1,468.1,214.35,467,216 C465.9,217.65,464.325,219.45,463.5,220 C462.675,220.55,461.325,222.125,460.5,223.5 C459.675,224.875,458.55,227.35,458,229 C457.45,230.65,457.225,232.225,457.5,232.5 C457.775,232.775,455.075,233,451.5,233 C447.925,233,442.975,232.775,440.5,232.5 C438.025,232.225,434.875,231.775,433.5,231.5 C432.125,231.225,431.45,230.775,432,230.5 C432.55,230.225,430.975,229.775,428.5,229.5 C426.025,229.225,418.15,229,411,229 C403.85,229,397.55,228.775,397,228.5 C396.45,228.225,394.2,228.225,392,228.5 C389.8,228.775,385.975,228.775,383.5,228.5 C381.025,228.225,377.425,227.775,375.5,227.5 C373.575,227.225,374.475,227,377.5,227 C380.525,227,382.325,226.55,381.5,226 C380.675,225.45,374.15,225,367,225 L354,225 L357,220 C358.65,217.25,366.525,205.55,374.5,194 C382.475,182.45,391.475,169.4,394.5,165 C397.525,160.6,404.5,150.475,410,142.5 C415.5,134.525,421.575,125.525,423.5,122.5 L427,117 L417,108 C411.5,103.05,401.825,94.725,395.5,89.5 C389.175,84.275,377.925,75.725,370.5,70.5 C363.075,65.275,352.5,58.3,347,55 C341.5,51.7,333.85,47.425,330,45.5 C326.15,43.575,318.275,39.975,312.5,37.5 C306.725,35.025,298.625,31.875,294.5,30.5 C290.375,29.125,284.3,27.325,281,26.5 C277.7,25.675,271.625,24.325,267.5,23.5 C263.375,22.675,256.4,21.55,252,21 C247.6,20.45,239.275,19.775,233.5,19.5 M470.5,55.5 C469.675,55.225,471.925,57.25,475.5,60 C479.075,62.75,484.7,67.025,488,69.5 C491.3,71.975,499.625,78.95,506.5,85 C513.375,91.05,518.55,95.325,518,94.5 C517.45,93.675,517.9,93.675,519,94.5 C520.1,95.325,520.775,96.225,520.5,96.5 C520.225,96.775,521.575,98.575,523.5,100.5 C525.425,102.425,529.475,106.475,532.5,109.5 C535.525,112.525,538.45,115.675,539,116.5 C539.579,117.369,539.79,117.158,539.5,116 C539.225,114.9,534.95,109.95,530,105 C525.05,100.05,522.125,96.225,523.5,96.5 C524.984,96.797,525.594,96.391,525,95.5 C524.45,94.675,522.2,93.1,520,92 C517.8,90.9,513.525,88.2,510.5,86 C507.475,83.8,501.175,78.85,496.5,75 C491.825,71.15,484.4,65.3,480,62 C475.6,58.7,471.325,55.775,470.5,55.5 M244,134 C238.5,134,232.65,134.45,231,135 C229.35,135.55,227.55,135.775,227,135.5 C226.45,135.225,226.225,135.45,226.5,136 C226.775,136.55,226.1,136.55,225,136 C223.9,135.45,223.225,135.675,223.5,136.5 C223.775,137.325,223.325,137.55,222.5,137 C221.675,136.45,220.1,136.45,219,137 C217.9,137.55,216.1,138.675,215,139.5 C213.9,140.325,211.2,141.9,209,143 C206.8,144.1,201.625,147.7,197.5,151 C193.375,154.3,187.3,160.375,184,164.5 C180.7,168.625,177.1,172.9,176,174 C174.9,175.1,173.775,175.775,173.5,175.5 C173.225,175.225,172.325,175.45,171.5,176 C170.675,176.55,169.775,176.775,169.5,176.5 C169.225,176.225,168.775,176.675,168.5,177.5 C168.225,178.325,168.45,178.55,169,178 C169.55,177.45,169.55,178.35,169,180 C168.45,181.65,167.55,183.225,167,183.5 C166.45,183.775,166.9,183.325,168,182.5 C169.1,181.675,170.9,179.875,172,178.5 C173.1,177.125,172.2,178.925,170,182.5 C167.8,186.075,165.1,189.675,164,190.5 C162.9,191.325,162.225,191.55,162.5,191 C162.775,190.45,162.55,190.225,162,190.5 C161.45,190.775,160.775,191.675,160.5,192.5 C160.225,193.325,160.225,194.9,160.5,196 C160.775,197.1,160.55,199.125,160,200.5 C159.45,201.875,158.775,202.325,158.5,201.5 C158.225,200.675,157.775,201.575,157.5,203.5 C157.225,205.425,156.775,207.225,156.5,207.5 C156.225,207.775,156.225,208.225,156.5,208.5 C156.775,208.775,156.55,208.325,156,207.5 C155.45,206.675,155.225,204.875,155.5,203.5 C155.775,202.125,155.55,200.775,155,200.5 C154.45,200.225,154.225,201.35,154.5,203 C154.775,204.65,154.55,207.125,154,208.5 C153.45,209.875,153.225,211.9,153.5,213 C153.775,214.1,153.55,214.775,153,214.5 C152.45,214.225,151.55,216.25,151,219 C150.45,221.75,150.225,224.225,150.5,224.5 C150.775,224.775,150.55,224.775,150,224.5 C149.45,224.225,149.225,224.9,149.5,226 C149.775,227.1,149.55,227.775,149,227.5 C148.45,227.225,147.775,228.125,147.5,229.5 C147.104,231.478,146.896,231.374,146.5,229 C146.225,227.35,145.55,225.775,145,225.5 C144.45,225.225,144.45,226.8,145,229 C145.55,231.2,146.225,233.9,146.5,235 C146.775,236.1,146.55,236.775,146,236.5 C145.45,236.225,144.325,239.6,143.5,244 C142.675,248.4,141.55,253.8,141,256 C140.45,258.2,139.775,260.225,139.5,260.5 C139.225,260.775,139,258.75,139,256 C139,253.25,138.55,251.675,138,252.5 C137.45,253.325,137.225,254.225,137.5,254.5 C137.775,254.775,137.775,255.225,137.5,255.5 C137.225,255.775,137.45,257.8,138,260 C138.55,262.2,138.775,264.225,138.5,264.5 C138.225,264.775,138.225,266.125,138.5,267.5 C138.852,269.262,138.705,269.41,138,268 C137.45,266.9,137.225,268.475,137.5,271.5 C137.775,274.525,137.55,276.1,137,275 C136.45,273.9,136.225,276.375,136.5,280.5 C136.775,284.625,136.775,290.025,136.5,292.5 C136.225,294.975,135.775,297.9,135.5,299 C135.225,300.1,135.225,301.225,135.5,301.5 C135.775,301.775,135.775,304.025,135.5,306.5 C135.225,308.975,135,314.6,135,319 C135,323.4,135.225,329.025,135.5,331.5 C135.775,333.975,136.225,338.7,136.5,342 C136.775,345.3,136.775,348.225,136.5,348.5 C136.225,348.775,136.675,350.8,137.5,353 C138.325,355.2,139.225,358.8,139.5,361 C139.775,363.2,139.775,365.675,139.5,366.5 C139.225,367.325,139.675,369.125,140.5,370.5 C141.325,371.875,141.775,373.225,141.5,373.5 C141.225,373.775,141.45,374.675,142,375.5 C142.55,376.325,143.45,378.8,144,381 C144.55,383.2,145.225,384.55,145.5,384 C145.775,383.45,145.55,384.575,145,386.5 C144.45,388.425,144.45,389.55,145,389 C145.55,388.45,145.775,388.9,145.5,390 C145.225,391.1,145.225,392.225,145.5,392.5 C145.775,392.775,145.55,393.45,145,394 C144.45,394.55,144.45,394.775,145,394.5 C145.55,394.225,146.225,393.55,146.5,393 C146.775,392.45,146.775,391.775,146.5,391.5 C146.225,391.225,146.45,390.55,147,390 C147.55,389.45,147.775,389.675,147.5,390.5 C147.225,391.325,147.675,392.9,148.5,394 C149.325,395.1,149.325,395.55,148.5,395 C147.675,394.45,146.775,394.9,146.5,396 C146.225,397.1,146.45,397.55,147,397 C147.55,396.45,149.125,398.925,150.5,402.5 C151.875,406.075,152.775,409.45,152.5,410 C152.225,410.55,152.45,410.55,153,410 C153.55,409.45,153.775,410.35,153.5,412 C153.225,413.65,153.45,415.225,154,415.5 C154.55,415.775,154.775,415.1,154.5,414 C154.225,412.9,154.45,411.775,155,411.5 C155.55,411.225,156.225,411.9,156.5,413 C156.775,414.1,156.775,415.225,156.5,415.5 C156.225,415.775,156.45,416.675,157,417.5 C157.55,418.325,158.45,419.675,159,420.5 C159.55,421.325,160.225,421.775,160.5,421.5 C160.775,421.225,160.775,422.125,160.5,423.5 C160.225,424.875,160.9,427.575,162,429.5 C163.1,431.425,164.225,432.775,164.5,432.5 C164.775,432.225,164.775,431.55,164.5,431 C164.225,430.45,164.45,430.675,165,431.5 C165.55,432.325,165.775,433.225,165.5,433.5 C165.225,433.775,165.45,434.675,166,435.5 C166.55,436.325,168.35,438.8,170,441 C171.65,443.2,172.775,445.225,172.5,445.5 C172.225,445.775,171.55,445.325,171,444.5 C170.45,443.675,170.675,444.125,171.5,445.5 C172.325,446.875,173.225,447.55,173.5,447 C173.775,446.45,175.575,448.025,177.5,450.5 C179.425,452.975,180.775,455.225,180.5,455.5 C180.225,455.775,180.675,456.45,181.5,457 C182.325,457.55,183.9,459.35,185,461 C186.1,462.65,188.35,465.35,190,467 C191.65,468.65,192.55,470.45,192,471 C191.45,471.55,191.9,472.9,193,474 C194.333,475.333,194.833,475.333,194.5,474 C194.225,472.9,193.775,471.775,193.5,471.5 C193.225,471.225,193.9,471.675,195,472.5 C196.1,473.325,201.725,477.825,207.5,482.5 C213.275,487.175,219.575,492.125,221.5,493.5 C223.425,494.875,226.125,496.9,227.5,498 C228.875,499.1,229.325,500.225,228.5,500.5 C227.675,500.775,228.125,501.225,229.5,501.5 C230.875,501.775,232.675,502.45,233.5,503 C234.325,503.55,235.45,503.775,236,503.5 C236.55,503.225,238.125,503.9,239.5,505 C240.875,506.1,242.225,506.775,242.5,506.5 C242.775,506.225,243.225,506.45,243.5,507 C243.775,507.55,243.1,508.45,242,509 C240.9,509.55,241.575,509.55,243.5,509 C245.425,508.45,246.325,508.45,245.5,509 C244.675,509.55,243.775,510.225,243.5,510.5 C243.225,510.775,244.35,510.55,246,510 C247.65,509.45,248.55,509.675,248,510.5 C247.406,511.391,248.016,511.797,249.5,511.5 C250.875,511.225,253.575,511.9,255.5,513 C257.425,514.1,259.45,515.225,260,515.5 C260.55,515.775,260.775,516.225,260.5,516.5 C260.225,516.775,260.9,516.775,262,516.5 C263.1,516.225,262.875,516.45,261.5,517 C260.125,517.55,258.325,517.55,257.5,517 C256.675,516.45,256.225,516.45,256.5,517 C256.775,517.55,257.45,518.225,258,518.5 C258.55,518.775,258.775,519.225,258.5,519.5 C258.225,519.775,259.35,519.55,261,519 C262.65,518.45,263.775,518.45,263.5,519 C263.225,519.55,264.125,519.55,265.5,519 C266.875,518.45,269.125,518.675,270.5,519.5 C271.875,520.325,272.775,521.225,272.5,521.5 C272.225,521.775,272.675,521.775,273.5,521.5 C274.325,521.225,276.125,521.675,277.5,522.5 C278.875,523.325,280.45,524.225,281,524.5 C281.55,524.775,281.55,525.225,281,525.5 C280.45,525.775,281.575,525.775,283.5,525.5 C285.425,525.225,288.35,525.675,290,526.5 C291.65,527.325,293.45,527.775,294,527.5 C294.55,527.225,294.775,527.45,294.5,528 C294.225,528.55,296.25,529.45,299,530 C301.75,530.55,304.225,530.775,304.5,530.5 C304.775,530.225,304.55,530.675,304,531.5 C303.421,532.369,304.263,533.21,306,533.5 C307.65,533.775,309.9,533.55,311,533 C312.1,532.45,312.325,532.45,311.5,533 C310.675,533.55,309.775,534.225,309.5,534.5 C309.225,534.775,310.8,534.775,313,534.5 C315.2,534.225,318.8,534.45,321,535 C323.2,535.55,325.675,536.225,326.5,536.5 C327.325,536.775,328.225,536.775,328.5,536.5 C328.775,536.225,330.8,536.675,333,537.5 C335.2,538.325,336.775,539.225,336.5,539.5 C336.225,539.775,336.9,539.55,338,539 C339.1,538.45,341.575,538.45,343.5,539 C345.425,539.55,351.725,540,357.5,540 C363.275,540,370.025,540.225,372.5,540.5 C374.975,540.775,381.275,540.775,386.5,540.5 C391.725,540.225,397.575,540.225,399.5,540.5 L403,541 L400,540 C397.958,539.319,398.757,539,402.5,539 C405.525,539,408.675,538.775,409.5,538.5 C410.325,538.225,411.45,538.225,412,538.5 C412.55,538.775,414.125,538.55,415.5,538 C416.875,537.45,418.45,537.225,419,537.5 C419.55,537.775,420.9,537.55,422,537 C423.1,536.45,424.225,536.225,424.5,536.5 C424.775,536.775,426.575,536.325,428.5,535.5 C430.425,534.675,435.15,533.775,439,533.5 C442.85,533.225,446.45,533.225,447,533.5 C447.55,533.775,447.325,533.325,446.5,532.5 C445.675,531.675,443.65,531.225,442,531.5 C440.263,531.79,440.473,531.579,442.5,531 C444.425,530.45,446.45,530.45,447,531 C447.55,531.55,447.775,531.325,447.5,530.5 C447.225,529.675,447.45,529.225,448,529.5 C448.55,529.775,450.125,529.55,451.5,529 C452.875,528.45,454.225,528.225,454.5,528.5 C454.775,528.775,455.225,528.55,455.5,528 C455.775,527.45,457.125,527.225,458.5,527.5 C460.262,527.852,460.41,527.705,459,527 C457.535,526.268,457.803,525.866,460,525.5 C461.65,525.225,463.45,525.45,464,526 C464.55,526.55,464.775,526.55,464.5,526 C464.225,525.45,465.8,524.55,468,524 C470.2,523.45,471.55,522.775,471,522.5 C470.45,522.225,469.55,522.225,469,522.5 C468.45,522.775,469.125,522.55,470.5,522 C471.875,521.45,473.45,520.775,474,520.5 C474.55,520.225,474.775,519.775,474.5,519.5 C474.225,519.225,475.125,518.775,476.5,518.5 C477.875,518.225,479.45,518.675,480,519.5 C480.55,520.325,480.775,520.325,480.5,519.5 C480.225,518.675,480.675,517.55,481.5,517 C482.325,516.45,484.35,516.45,486,517 C487.65,517.55,489.675,517.325,490.5,516.5 C491.446,515.554,490.892,515.369,489,516 C487.35,516.55,485.55,516.55,485,516 C484.45,515.45,484.45,514.775,485,514.5 C485.55,514.225,486.45,514.225,487,514.5 C487.55,514.775,487.775,514.55,487.5,514 C487.225,513.45,487.45,513.225,488,513.5 C488.55,513.775,490.125,513.325,491.5,512.5 C492.875,511.675,494.225,511.225,494.5,511.5 C494.775,511.775,495.225,511.55,495.5,511 C495.775,510.45,496.225,510.45,496.5,511 C496.775,511.55,497.45,511.325,498,510.5 C498.55,509.675,499.9,508.775,501,508.5 C502.1,508.225,503.675,507.325,504.5,506.5 C505.325,505.675,505.325,505.225,504.5,505.5 C503.675,505.775,503.675,505.55,504.5,505 C505.325,504.45,506.45,504.225,507,504.5 C507.55,504.775,507.775,504.55,507.5,504 C507.225,503.45,507.9,502.55,509,502 C510.1,501.45,510.55,501.45,510,502 C509.45,502.55,509.9,502.325,511,501.5 C512.1,500.675,512.775,499.775,512.5,499.5 C512.225,499.225,512.9,498.775,514,498.5 C515.1,498.225,516.675,497.55,517.5,497 C518.325,496.45,518.775,495.775,518.5,495.5 C518.225,495.225,518.675,494.775,519.5,494.5 C520.325,494.225,520.775,494.45,520.5,495 C520.225,495.55,520.45,495.325,521,494.5 C521.55,493.675,522.45,492.775,523,492.5 C523.55,492.225,523.775,492.45,523.5,493 C523.225,493.55,524.575,492.65,526.5,491 C528.425,489.35,531.575,486.2,533.5,484 L537,480 L531,484.5 C527.7,486.975,519.15,492.6,512,497 C504.85,501.4,497.2,505.9,495,507 C492.8,508.1,489.2,509.9,487,511 C484.8,512.1,478.95,514.8,474,517 C469.05,519.2,460.275,522.575,454.5,524.5 C448.725,526.425,440.4,528.9,436,530 C431.6,531.1,424.625,532.675,420.5,533.5 C416.375,534.325,407.15,535.675,400,536.5 C392.85,537.325,379.575,538,370.5,538 C361.425,538,347.7,537.1,340,536 C332.3,534.9,320.375,532.65,313.5,531 C306.625,529.35,296.95,526.65,292,525 C287.05,523.35,276.925,519.525,269.5,516.5 C262.075,513.475,251.275,508.525,245.5,505.5 C239.725,502.475,230.95,497.3,226,494 C221.05,490.7,213.4,484.85,209,481 C204.6,477.15,199.2,472.2,197,470 C194.8,467.8,189.85,462.175,186,457.5 C182.15,452.825,176.075,444.5,172.5,439 C168.925,433.5,163.75,424.275,161,418.5 C158.25,412.725,154.2,403.05,152,397 C149.8,390.95,147.1,382.175,146,377.5 C144.9,372.825,143.55,366.75,143,364 C142.45,361.25,141.325,354.275,140.5,348.5 C139.675,342.725,138.775,331.475,138.5,323.5 C138.225,315.525,138,304.725,138,299.5 C138,294.275,138.225,287.975,138.5,285.5 C138.775,283.025,139.9,275.375,141,268.5 C142.1,261.625,144.35,250.825,146,244.5 C147.65,238.175,151.25,227.15,154,220 C156.75,212.85,160.8,203.4,163,199 C165.2,194.6,169.475,187.175,172.5,182.5 C175.525,177.825,180.925,170.85,184.5,167 C188.075,163.15,192.125,158.875,193.5,157.5 C194.875,156.125,197.8,153.65,200,152 C202.2,150.35,206.475,147.65,209.5,146 C212.525,144.35,216.575,142.325,218.5,141.5 C220.425,140.675,224.7,139.325,228,138.5 C231.3,137.675,238.275,136.775,243.5,136.5 C248.725,136.225,256.375,136.9,260.5,138 C264.625,139.1,270.925,141.35,274.5,143 C278.075,144.65,283.25,147.125,286,148.5 C288.75,149.875,291.225,150.775,291.5,150.5 C291.775,150.225,290.425,149.1,288.5,148 C286.575,146.9,285.9,146.225,287,146.5 C288.1,146.775,287.425,146.325,285.5,145.5 C283.575,144.675,281.325,143.55,280.5,143 C279.675,142.45,278.55,142.225,278,142.5 C277.45,142.775,277.225,142.55,277.5,142 C277.775,141.45,278.675,140.55,279.5,140 C280.325,139.45,280.55,138.775,280,138.5 C279.45,138.225,277.875,138.675,276.5,139.5 C275.125,140.325,273.55,140.775,273,140.5 C272.45,140.225,271.775,140.225,271.5,140.5 C271.225,140.775,271.225,140.55,271.5,140 C271.775,139.45,270.425,138.55,268.5,138 C266.575,137.45,264.55,137.225,264,137.5 C263.45,137.775,263.225,137.55,263.5,137 C263.775,136.45,263.1,135.775,262,135.5 C260.9,135.225,259.775,135.225,259.5,135.5 C259.225,135.775,257.875,135.55,256.5,135 C255.125,134.45,249.5,134,244,134 M223,274.5 C222.205,272.514,222.103,272.616,222.5,275 C222.775,276.65,222.775,280.025,222.5,282.5 C222.225,284.975,222,291.05,222,296 C222,300.95,222.9,310.85,224,318 C225.1,325.15,227.125,335.5,228.5,341 C229.875,346.5,231.225,351.225,231.5,351.5 C231.775,351.775,231.775,349.975,231.5,347.5 C231.225,345.025,230.325,340.75,229.5,338 C228.675,335.25,227.325,328.95,226.5,324 C225.675,319.05,224.55,310.725,224,305.5 C223.45,300.275,223,292.625,223,288.5 C223,284.375,223.225,280.1,223.5,279 C223.775,277.9,223.55,275.875,223,274.5 M237,364 L232,353 L237.5,367 C240.525,374.7,245.7,385.5,249,391 C252.3,396.5,258.825,405.725,263.5,411.5 C268.175,417.275,275.15,424.7,279,428 C282.85,431.3,289.6,436.025,294,438.5 C298.4,440.975,302.45,442.775,303,442.5 C303.55,442.225,303.775,442.45,303.5,443 C303.225,443.55,306.15,445.125,310,446.5 C313.85,447.875,320.15,449.675,324,450.5 C327.85,451.325,334.825,452.225,339.5,452.5 C344.175,452.775,352.5,452.1,358,451 C363.5,449.9,373.4,446.525,380,443.5 C386.6,440.475,395.825,435.3,400.5,432 C405.175,428.7,414.175,421.05,420.5,415 C426.825,408.95,436.275,398.825,441.5,392.5 C446.725,386.175,453.25,377.625,456,373.5 L461,366 L457,365 C454.8,364.45,451.2,364.225,449,364.5 C446.8,364.775,444.325,364.775,443.5,364.5 C442.675,364.225,439.975,364.225,437.5,364.5 C435.025,364.775,421.3,365,407,365 C392.7,365,380.325,364.775,379.5,364.5 C378.675,364.225,375.975,364.225,373.5,364.5 C371.025,364.775,366.3,365,363,365 C359.7,365,356.55,364.775,356,364.5 C355.45,364.225,353.425,365.35,351.5,367 C349.575,368.65,346.65,373.15,345,377 C343.35,380.85,338.625,389.4,334.5,396 C330.375,402.6,322.95,412.05,318,417 C313.05,421.95,307.65,427.35,306,429 C304.35,430.65,301.425,433.125,299.5,434.5 C297.575,435.875,294.65,436.775,293,436.5 C291.35,436.225,287.975,433.975,285.5,431.5 C283.025,429.025,278.525,424.975,275.5,422.5 C272.475,420.025,267.075,414.175,263.5,409.5 C259.925,404.825,255.875,399.425,254.5,397.5 C253.125,395.575,249.75,389.725,247,384.5 C244.25,379.275,239.75,370.05,237,364 M364,366 C370.05,366,377.025,366.225,379.5,366.5 C381.975,366.775,400.875,367,421.5,367 C442.125,367,458.55,367.45,458,368 C457.45,368.55,456.775,368.775,456.5,368.5 C456.225,368.225,455.775,368.225,455.5,368.5 C455.225,368.775,454.325,369.45,453.5,370 C452.675,370.55,451.55,372.125,451,373.5 C450.45,374.875,450.45,375.325,451,374.5 C451.55,373.675,452.675,372.775,453.5,372.5 C454.325,372.225,454.325,372.9,453.5,374 C452.675,375.1,450.875,377.125,449.5,378.5 C448.125,379.875,447.225,381.225,447.5,381.5 C447.775,381.775,447.775,382.45,447.5,383 C447.225,383.55,446.775,383.775,446.5,383.5 C446.225,383.225,445.325,383.45,444.5,384 C443.675,384.55,442.775,384.55,442.5,384 C442.225,383.45,441.55,383.675,441,384.5 C440.45,385.325,440.45,385.775,441,385.5 C441.55,385.225,441.1,386.8,440,389 C438.9,391.2,438.675,392.1,439.5,391 C440.325,389.9,441.9,388.325,443,387.5 C444.1,386.675,443.2,388.25,441,391 C438.8,393.75,434.075,398.925,430.5,402.5 C426.925,406.075,424.45,408.325,425,407.5 C425.579,406.631,425.369,406.421,424.5,407 C423.675,407.55,421.65,409.35,420,411 C418.35,412.65,417.9,413.55,419,413 C420.1,412.45,419.425,413.575,417.5,415.5 C415.575,417.425,414.675,418.1,415.5,417 C416.687,415.417,416.478,415.313,414.5,416.5 C413.125,417.325,412.225,418.225,412.5,418.5 C412.775,418.775,411.875,420.125,410.5,421.5 C409.125,422.875,407.1,424.675,406,425.5 C404.9,426.325,402.875,427.45,401.5,428 C400.125,428.55,399.225,429.225,399.5,429.5 C399.775,429.775,398.2,430.9,396,432 C393.8,433.1,392.225,433.55,392.5,433 C392.775,432.45,392.325,432.675,391.5,433.5 C390.675,434.325,389.55,434.775,389,434.5 C388.45,434.225,386.875,434.45,385.5,435 C384.125,435.55,383.45,436.225,384,436.5 C384.55,436.775,384.325,437.225,383.5,437.5 C382.675,437.775,382.45,438.675,383,439.5 C383.55,440.325,383.55,440.775,383,440.5 C382.45,440.225,380.65,440.9,379,442 C377.35,443.1,374.875,443.775,373.5,443.5 C372.125,443.225,371.45,443.45,372,444 C372.55,444.55,372.55,444.775,372,444.5 C371.45,444.225,369.425,444.9,367.5,446 C365.575,447.1,363.775,447.775,363.5,447.5 C363.225,447.225,360.975,447.675,358.5,448.5 C356.025,449.325,353.55,449.775,353,449.5 C352.45,449.225,349.3,449.225,346,449.5 C342.7,449.775,336.85,449.55,333,449 C329.15,448.45,325.55,448.225,325,448.5 C324.45,448.775,321.3,448.1,318,447 C314.7,445.9,310.425,444.325,308.5,443.5 L305,442 L308.5,443 C310.425,443.55,311.775,443.775,311.5,443.5 C311.225,443.225,311.225,442.775,311.5,442.5 C311.775,442.225,311.775,441.55,311.5,441 C311.225,440.45,311.225,439.55,311.5,439 C311.775,438.45,311.1,438.45,310,439 C308.9,439.55,307.775,439.775,307.5,439.5 C307.225,439.225,306.55,439.225,306,439.5 C305.45,439.775,304.55,439.775,304,439.5 C303.45,439.225,303.225,439.45,303.5,440 C303.775,440.55,303.325,440.775,302.5,440.5 C301.675,440.225,301.225,439.55,301.5,439 C301.775,438.45,301.1,438.225,300,438.5 C298.9,438.775,298.225,438.55,298.5,438 C298.775,437.45,301.25,435.2,304,433 C306.75,430.8,311.925,426.3,315.5,423 C319.075,419.7,325.375,412.275,329.5,406.5 C333.625,400.725,339.25,391.95,342,387 C344.75,382.05,348.35,375.3,350,372 L353,366 L364,366 M463,368.5 C462.45,368.225,465.15,372.725,469,378.5 C472.85,384.275,479.6,394.175,484,400.5 C488.4,406.825,494.7,415.825,498,420.5 C501.3,425.175,506.925,433.5,510.5,439 C514.075,444.5,518.35,450.8,520,453 C521.65,455.2,526.375,461.725,530.5,467.5 C534.625,473.275,537.1,476.2,536,474 C534.9,471.8,531.525,466.4,528.5,462 C525.475,457.6,521.2,451.525,519,448.5 C516.8,445.475,513.425,440.75,511.5,438 C509.575,435.25,507.1,431.425,506,429.5 C504.9,427.575,502.875,424.65,501.5,423 C500.125,421.35,496.75,416.625,494,412.5 C491.25,408.375,485.85,400.5,482,395 C478.15,389.5,472.525,381.4,469.5,377 C466.475,372.6,463.55,368.775,463,368.5 M505,508 C504.45,508,503.1,509.125,502,510.5 C500.9,511.875,496.625,515.7,492.5,519 C488.375,522.3,482.075,527.475,478.5,530.5 C474.925,533.525,474.025,534.65,476.5,533 C478.975,531.35,482.125,529.1,483.5,528 C484.875,526.9,488.475,523.975,491.5,521.5 C494.525,519.025,499.025,514.975,501.5,512.5 C503.975,510.025,505.55,508,505,508 M470,536 C469.45,536,467.875,536.9,466.5,538 C465.125,539.1,460.4,542.25,456,545 C451.6,547.75,444.175,552.25,439.5,555 C434.825,557.75,426.725,562.25,421.5,565 C416.275,567.75,409.525,571.125,406.5,572.5 C403.475,573.875,395.6,577.025,389,579.5 C382.4,581.975,372.275,585.35,366.5,587 C360.725,588.65,355.775,590.225,355.5,590.5 C355.225,590.775,356.8,590.775,359,590.5 C361.2,590.225,364.575,589.55,366.5,589 C368.425,588.45,372.025,587.325,374.5,586.5 C376.975,585.675,384.175,582.975,390.5,580.5 C396.825,578.025,406.95,573.75,413,571 C419.05,568.25,427.15,564.2,431,562 C434.85,559.8,441.375,555.975,445.5,553.5 C449.625,551.025,456.825,546.525,461.5,543.5 C466.175,540.475,470.225,537.55,470.5,537 C470.775,536.45,470.55,536,470,536 M341,594 C339.9,594,335.175,594.675,330.5,595.5 C325.825,596.325,318.4,597.45,314,598 L306,599 L316,599 C321.5,599,328.475,598.325,331.5,597.5 C334.525,596.675,338.35,595.55,340,595 C341.65,594.45,342.1,594,341,594 " fill="rgb(0, 0, 0)" stroke="none" fill-rule="evenodd"></path></svg>